PathFileType	4	(X/Y/Z)	G:\GRF\jawan data\CompiledGRF\03. Mohit Kumar\0231~ac~Walking 09_markers.trc
DataRate	CameraRate	NumFrames	NumMarkers	Units	OrigDataRate	OrigDataStartFrame	OrigNumFrames
100.000000	100.000000	12	18	mm	100.000000	630	840
Frame#	Time	c7			r should			l should			sacrum			r asis			r bar 1			r knee 1			r bar 2			r mall			r heel			r met			l asis			l bar 1			l knee 1			l bar 2			l mall			l heel			l met			
		X1	Y1	Z1	X2	Y2	Z2	X3	Y3	Z3	X4	Y4	Z4	X5	Y5	Z5	X6	Y6	Z6	X7	Y7	Z7	X8	Y8	Z8	X9	Y9	Z9	X10	Y10	Z10	X11	Y11	Z11	X12	Y12	Z12	X13	Y13	Z13	X14	Y14	Z14	X15	Y15	Z15	X16	Y16	Z16	X17	Y17	Z17	X18	Y18	Z18	

631	6.3	2528.20947265625	1472.026000976563	219.7437591552734	2594.43994140625	1428.375	376.5708923339844	2555.310546875	1431.333251953125	54.91859817504883	2415.177490234375	1020.92919921875	222.8760681152344	2595.274169921875	975.5966796875	343.9802856445313	2426.0341796875	587.88134765625	406.1676025390625	2411.455322265625	499.237548828125	352.2919311523438	2231.8447265625	227.0629425048828	380.0099182128906	2183.536376953125	102.8127136230469	318.3525695800781	2108.890625	90.04656982421875	276.2142944335938	2309.82958984375	27.58885955810547	298.4664611816406	2587.47265625	991.2406005859375	98.56912231445313	2665.33349609375	587.3594970703125	38.07376480102539	2706.741455078125	514.6561889648438	97.85295867919922	2728.06982421875	236.6855621337891	46.97894287109375	2760.62646484375	64.93039703369141	112.6281890869141	nan	nan	nan	nan	nan	nan	
632	6.31	2536.986572265625	1472.81689453125	218.1818695068359	2604.6416015625	1429.719482421875	374.9958190917969	2564.703369140625	1431.8056640625	53.3422737121582	2426.349609375	1021.872985839844	222.2064361572266	2606.14208984375	976.0258178710938	342.5885314941406	2437.85498046875	588.2557983398438	404.9332885742188	2423.9375	499.0273742675781	351.4444274902344	2238.23974609375	230.8796691894531	380.2649230957031	2186.857177734375	106.9073638916016	319.19384765625	2112.417236328125	96.78482818603516	277.1440734863281	2310.372802734375	27.61102676391602	298.535888671875	2598.233154296875	992.6734619140625	97.16143035888672	2675.8935546875	588.7261352539063	36.98972702026367	2716.671875	515.8878784179688	97.09192657470703	2735.76123046875	236.5372009277344	46.15485000610352	2761.330322265625	64.64196014404297	112.1055450439453	nan	nan	nan	nan	nan	nan	
633	6.32	2545.444580078125	1473.848022460938	216.3211364746094	2614.251708984375	1431.000244140625	373.29150390625	2574.247802734375	1432.73291015625	51.69269180297852	2436.05322265625	1023.109313964844	221.4902496337891	2617.0712890625	976.7138671875	341.1781921386719	2450.119384765625	588.2428588867188	403.4760437011719	2437.12060546875	498.6163024902344	350.7423706054688	2245.444091796875	234.9882965087891	380.6266174316406	2190.944580078125	111.5437622070313	320.1720581054688	2116.635498046875	104.0859756469727	278.1086730957031	2310.828857421875	27.59536743164063	298.5626220703125	2608.988525390625	994.1134643554688	95.66555786132813	2686.8408203125	590.0174560546875	35.73494338989258	2726.82958984375	516.6287841796875	96.00414276123047	2741.96875	235.5801391601563	45.0801887512207	nan	nan	nan	nan	nan	nan	nan	nan	nan	
634	6.33	2552.156494140625	1475.432495117188	214.6009216308594	2623.889404296875	1432.607666015625	371.5953063964844	2583.7607421875	1434.002685546875	50.11125946044922	2449.4501953125	1023.949951171875	220.9960021972656	2627.978759765625	977.631103515625	339.6900939941406	2463.144775390625	588.4951171875	402.4190368652344	2451.11328125	498.1356811523438	350.2859497070313	2253.48095703125	239.4281005859375	381.1459350585938	2195.83642578125	116.654426574707	321.1816101074219	2121.83203125	112.0500564575195	278.9183654785156	2311.38623046875	27.6398811340332	298.5955200195313	2619.802490234375	995.5632934570313	94.10970306396484	2697.87939453125	591.0270385742188	34.13091659545898	2736.645263671875	516.869873046875	94.73625183105469	2746.60302734375	234.25537109375	43.96150207519531	2764.35546875	63.28979110717773	110.9121475219727	nan	nan	nan	nan	nan	nan	
635	6.34	2562.231201171875	1476.437255859375	212.9531555175781	2633.640625	1434.71240234375	369.8011169433594	2593.363037109375	1435.562133789063	48.46717834472656	2460.9365234375	1024.977172851563	220.0229339599609	2638.912109375	978.7822875976563	338.1240844726563	2476.414306640625	588.306396484375	401.2601928710938	2466.095947265625	497.7835693359375	350.2278747558594	2262.219482421875	244.3402557373047	381.7022705078125	2201.630615234375	122.3083572387695	322.1335754394531	2128.31689453125	120.8813629150391	279.2994384765625	2311.853271484375	27.5455436706543	298.5667419433594	2630.69091796875	997.0230102539063	92.5068359375	2708.162841796875	591.42138671875	32.64869689941406	2745.721435546875	516.8710327148438	93.4473876953125	2750.5673828125	233.1759338378906	42.99817276000977	2765.434326171875	63.20253753662109	110.7047271728516	nan	nan	nan	nan	nan	nan	
636	6.350000000000001	2571.55419921875	1477.886962890625	211.3822479248047	2643.604248046875	1436.913452148438	368.2607421875	2602.79541015625	1437.269409179688	46.9942626953125	2469.453125	1026.866943359375	218.4546661376953	2649.8798828125	980.1767578125	336.4854431152344	2490.790283203125	588.7435913085938	400.3766784667969	2481.93505859375	497.5585021972656	350.6689147949219	2271.38671875	249.5853118896484	382.2728271484375	2208.309814453125	128.3182983398438	323.1354064941406	2136.103271484375	130.2010650634766	279.2372741699219	2312.630859375	27.58645248413086	298.5371704101563	2641.67138671875	998.5636596679688	90.88801574707031	2717.19775390625	591.6356201171875	31.06997871398926	2753.712158203125	516.85986328125	92.20254516601563	2754.433837890625	232.7911071777344	42.14345169067383	2766.331787109375	62.99676895141602	110.4730987548828	nan	nan	nan	nan	nan	nan	
637	6.36	2582.594482421875	1479.357055664063	209.7274627685547	2652.73291015625	1439.138549804688	366.4656982421875	2612.318359375	1439.111938476563	45.45298767089844	2477.552978515625	1028.645263671875	216.7607574462891	2660.731201171875	981.7756958007813	334.7286071777344	2499.76171875	588.3228759765625	399.3734436035156	2498.375244140625	497.4186706542969	351.6996765136719	2280.872314453125	255.0733337402344	382.8177490234375	2215.5400390625	134.2789154052734	324.0313415527344	2145.26025390625	140.1180419921875	278.8164367675781	2313.6142578125	27.65775489807129	298.3847045898438	2652.73583984375	1000.255920410156	89.23972320556641	2724.836669921875	591.9498901367188	29.59346199035645	2760.692138671875	516.9843139648438	91.05454254150391	2758.45263671875	232.8993072509766	41.49626922607422	2766.773193359375	62.7315559387207	110.2885284423828	nan	nan	nan	nan	nan	nan	
638	6.37	2591.886962890625	1480.88623046875	208.0515899658203	2662.152099609375	1441.331176757813	364.897705078125	2621.838134765625	1441.025024414063	44.08265686035156	2489.1669921875	1029.962768554688	215.2118072509766	2671.428955078125	983.4257202148438	332.8877258300781	nan	nan	nan	2515.498046875	497.2936401367188	353.3494873046875	2291.4931640625	261.1731567382813	383.0916442871094	2224.224853515625	140.6430358886719	324.9007263183594	2155.8271484375	150.4032592773438	278.1550903320313	2314.98193359375	27.84278106689453	298.1270446777344	2663.804931640625	1002.053039550781	87.58351135253906	2731.26416015625	592.1420288085938	28.35474586486816	2766.833251953125	517.0360717773438	90.01591491699219	2762.44775390625	232.9917907714844	41.30863571166992	2767.1279296875	62.65801239013672	110.5761413574219	nan	nan	nan	nan	nan	nan	
639	6.38	2603.8408203125	1482.209594726563	206.5894775390625	2671.45263671875	1443.353637695313	363.60546875	2631.3916015625	1442.83642578125	42.79082107543945	2500.31884765625	1031.012084960938	213.5445404052734	2681.825927734375	985.021484375	330.9918823242188	nan	nan	nan	2533.497314453125	497.2026062011719	355.5247192382813	2303.1005859375	267.1678161621094	383.3021850585938	2234.828125	147.288818359375	325.8715515136719	2168.50439453125	160.6366271972656	277.7102355957031	2317.027587890625	28.17049598693848	297.5912780761719	2674.802001953125	1003.900024414063	85.96566009521484	2736.69921875	591.6373901367188	27.18374252319336	2772.356689453125	516.7254638671875	89.13069152832031	2765.891845703125	232.5893402099609	41.35955429077148	2767.569091796875	62.58050918579102	110.9470825195313	nan	nan	nan	nan	nan	nan	
640	6.390000000000001	2612.0625	1483.458374023438	205.2505798339844	2680.4599609375	1445.495971679688	362.1412658691406	2641.074951171875	1444.53662109375	41.5074577331543	2513.639892578125	1031.795288085938	212.0455017089844	2691.868408203125	986.5386352539063	329.1081848144531	2551.726318359375	587.2022094726563	399.2571411132813	2551.851806640625	496.7617797851563	357.697021484375	2316.618408203125	272.9101257324219	383.4750671386719	2246.81591796875	153.6048126220703	326.5623168945313	2183.020751953125	171.0572204589844	277.5984191894531	2320.21435546875	28.72015762329102	296.7688293457031	2685.663818359375	1005.668029785156	84.38343048095703	2742.146240234375	591.0401611328125	26.15674209594727	2777.6298828125	516.145263671875	88.44779968261719	2768.951416015625	232.0872802734375	41.57152938842773	2767.70654296875	62.35110092163086	111.187126159668	nan	nan	nan	nan	nan	nan	
641	6.4	2621.676025390625	1484.79736328125	203.8188781738281	2689.3583984375	1447.176879882813	360.9558715820313	2650.576416015625	1446.036743164063	40.46879577636719	2522.666259765625	1033.162719726563	210.3975830078125	2701.49853515625	987.8924560546875	327.3970031738281	nan	nan	nan	2570.467041015625	496.0243835449219	359.4949035644531	2331.6298828125	277.8871765136719	383.9791870117188	2260.319091796875	159.9279632568359	327.0896911621094	2198.816162109375	181.3246459960938	278.11962890625	2324.0927734375	29.70639610290527	296.0201416015625	2696.2890625	1007.248168945313	82.83423614501953	2747.8662109375	590.6777954101563	25.26342582702637	2782.77197265625	515.432861328125	87.94783020019531	2771.51904296875	231.5168914794922	41.85973739624023	2767.763427734375	62.15739440917969	111.3912353515625	nan	nan	nan	nan	nan	nan	
642	6.41	2628.056884765625	1486.454711914063	202.5793151855469	2698.44970703125	1448.682861328125	360.0323791503906	2660.600830078125	1447.419067382813	39.32114410400391	2531.38818359375	1034.591186523438	208.5801391601563	2710.81982421875	989.1101684570313	325.8793334960938	2585.888671875	585.264404296875	401.7779846191406	2589.3994140625	495.2890930175781	360.9453430175781	2347.831787109375	282.2647094726563	384.41943359375	2274.8017578125	166.1016082763672	327.8955688476563	2214.92431640625	191.0172729492188	279.233154296875	2328.83154296875	31.86222457885742	295.515380859375	2706.475341796875	1008.569458007813	81.37392425537109	2753.974365234375	590.7562866210938	24.41733932495117	2787.686767578125	514.8271484375	87.48212432861328	2773.296875	230.7988739013672	41.98559951782227	2768.088134765625	62.14520645141602	111.66015625	nan	nan	nan	nan	nan	nan	
